<svg xmlns="http://www.w3.org/2000/svg" width="29.156" height="29.19" viewBox="0 0 29.156 29.19">
  <defs>
    <style>
      .cls-1 {
        fill-rule: evenodd;
        opacity: 0.5;
      }
    </style>
  </defs>
  <path id="Forma_1_copy" data-name="Forma 1 copy" class="cls-1" d="M416.575,1334.03a14.59,14.59,0,1,1,14.586-14.59A14.6,14.6,0,0,1,416.575,1334.03Zm0-27.12a12.53,12.53,0,1,0,12.527,12.53A12.552,12.552,0,0,0,416.575,1306.91Zm3.364,19.81a1.008,1.008,0,0,1-.728.3,1.049,1.049,0,0,1-.728-0.3l-6.628-6.63a1.021,1.021,0,0,1,0-1.45l6.628-6.63a1.031,1.031,0,0,1,1.456,1.46l-5.9,5.9,5.9,5.9A1.024,1.024,0,0,1,419.939,1326.72Z" transform="translate(-402 -1304.84)"/>
</svg>
